P3
18 18
256
127 0 28 127 0 28 127 0 28 127 0 28 127 0 28 127 0 28 127 0 28 127 0 28 127 0 28 127 0 28 127 0 28 127 0 28 127 0 28 127 0 28 127 0 28 127 0 28 127 0 28 127 0 28 
127 0 28 0 28 224 0 28 112 0 0 196 0 0 196 0 56 168 0 0 84 0 28 140 0 28 224 0 28 140 0 28 224 0 28 112 0 0 196 0 0 196 0 56 168 0 0 84 0 28 140 127 0 28 
127 0 28 0 0 84 0 28 140 0 28 224 0 28 112 0 0 196 0 0 196 0 56 168 0 0 84 0 56 168 0 0 84 0 28 140 0 28 224 0 28 112 0 0 196 0 0 196 0 56 168 127 0 28 
127 0 28 0 56 168 0 0 84 0 28 140 0 28 224 0 28 112 0 0 196 0 0 196 0 56 168 0 0 196 0 56 168 0 0 84 0 28 140 0 28 224 0 28 112 0 0 196 0 0 196 127 0 28 
127 0 28 0 0 196 0 0 196 0 56 168 0 0 84 0 28 140 0 28 224 0 28 112 0 0 196 0 28 112 0 0 196 0 0 196 0 56 168 0 0 84 0 28 140 0 28 224 0 28 112 127 0 28 
127 0 28 0 28 140 0 28 224 0 28 112 0 0 196 0 0 196 0 56 168 0 0 84 0 28 140 0 0 84 0 28 140 0 28 224 0 28 112 0 0 196 0 0 196 0 56 168 0 0 84 127 0 28 
127 0 28 0 56 168 0 0 84 0 28 140 0 28 224 0 28 112 0 0 196 0 0 196 0 56 168 0 0 196 0 56 168 0 0 84 0 28 140 0 28 224 0 28 112 0 0 196 0 0 196 127 0 28 
127 0 28 0 0 196 0 56 168 0 0 84 0 28 140 0 28 224 0 28 112 0 0 196 0 0 196 0 0 196 0 0 196 0 56 168 0 0 84 0 28 140 0 28 224 0 28 112 0 0 196 127 0 28 
127 0 28 0 28 112 0 0 196 0 0 196 0 56 168 0 0 84 0 28 140 0 28 224 0 28 112 0 28 224 0 28 112 0 0 196 0 0 196 0 56 168 0 0 84 0 28 140 0 28 224 127 0 28 
127 0 28 0 0 196 0 0 196 0 56 168 0 0 84 0 28 140 0 28 224 0 28 112 0 0 196 0 28 112 0 0 196 0 0 196 0 56 168 0 0 84 0 28 140 0 28 224 0 28 112 127 0 28 
127 0 28 0 28 224 0 28 112 0 0 196 0 0 196 0 56 168 0 0 84 0 28 140 0 28 224 0 28 140 0 28 224 0 28 112 0 0 196 0 0 196 0 56 168 0 0 84 0 28 140 127 0 28 
127 0 28 0 28 140 0 28 224 0 28 112 0 0 196 0 0 196 0 56 168 0 0 84 0 28 140 0 0 84 0 28 140 0 28 224 0 28 112 0 0 196 0 0 196 0 56 168 0 0 84 127 0 28 
127 0 28 0 56 168 0 0 84 0 28 140 0 28 224 0 28 112 0 0 196 0 0 196 0 56 168 0 0 196 0 56 168 0 0 84 0 28 140 0 28 224 0 28 112 0 0 196 0 0 196 127 0 28 
127 0 28 0 28 112 0 0 196 0 0 196 0 56 168 0 0 84 0 28 140 0 28 224 0 28 112 0 28 224 0 28 112 0 0 196 0 0 196 0 56 168 0 0 84 0 28 140 0 28 224 127 0 28 
127 0 28 0 28 140 0 28 224 0 28 112 0 0 196 0 0 196 0 56 168 0 0 84 0 28 140 0 0 84 0 28 140 0 28 224 0 28 112 0 0 196 0 0 196 0 56 168 0 0 84 127 0 28 
127 0 28 0 0 84 0 28 140 0 28 224 0 28 112 0 0 196 0 0 196 0 56 168 0 0 84 0 56 168 0 0 84 0 28 140 0 28 224 0 28 112 0 0 196 0 0 196 0 56 168 127 0 28 
127 0 28 0 0 196 0 56 168 0 0 84 0 28 140 0 28 224 0 28 112 0 0 196 0 0 196 0 0 196 0 0 196 0 56 168 0 0 84 0 28 140 0 28 224 0 28 112 0 0 196 127 0 28 
127 0 28 127 0 28 127 0 28 127 0 28 127 0 28 127 0 28 127 0 28 127 0 28 127 0 28 127 0 28 127 0 28 127 0 28 127 0 28 127 0 28 127 0 28 127 0 28 127 0 28 127 0 28 